<!--?xml version="1.0" standalone="no"?-->
              <svg id="sw-js-blob-svg" viewBox="0 0 100 100" xmlns="http://www.w3.org/2000/svg" version="1.1">
                    <defs> 
                        <linearGradient id="sw-gradient" x1="0" x2="1" y1="1" y2="0">
                            <stop id="stop1" stop-color="rgba(122.471, 184.449, 190.183, 1)" offset="0%"></stop>
                            <stop id="stop2" stop-color="rgba(194.736, 103.369, 30.853, 1)" offset="100%"></stop>
                        </linearGradient>
                    </defs>
                <path fill="url(#sw-gradient)" d="M21.7,-28.7C29.2,-28.9,37.2,-24.8,38.3,-18.6C39.3,-12.4,33.5,-4.2,26.9,0C20.3,4.3,13,4.6,9.5,7.7C6,10.8,6.3,16.7,3.1,23.6C-0.1,30.5,-6.8,38.3,-11.3,37.5C-15.8,36.6,-18,27.1,-21.6,20.2C-25.2,13.4,-30.1,9.2,-32.7,3.5C-35.4,-2.2,-35.8,-9.4,-32.4,-14C-29,-18.5,-21.7,-20.5,-15.7,-21C-9.6,-21.4,-4.8,-20.4,1.1,-22.2C7.1,-23.9,14.2,-28.5,21.7,-28.7Z" width="100%" height="100%" transform="translate(50 50)" stroke-width="0" style="transition: all 0.3s ease 0s;" stroke="url(#sw-gradient)"></path>
              </svg>